<svg width="24" height="24" viewBox="0 0 24 24" fill="none" xmlns="http://www.w3.org/2000/svg">
  <!-- Left page -->
  <path d="M2 3h6a4 4 0 0 1 4 4v14a3 3 0 0 0-3-3H2V3z" fill="#f5f5f5" stroke="#333" stroke-width="1.5"/>
  
  <!-- Right page -->
  <path d="M22 3h-6a4 4 0 0 0-4 4v14a3 3 0 0 1 3-3h7V3z" fill="#f5f5f5" stroke="#333" stroke-width="1.5"/>
  
  <!-- Reading lines on left page -->
  <line x1="4" y1="8" x2="6" y2="8" stroke="#333" stroke-width="1" opacity="0.6"/>
  <line x1="4" y1="10" x2="7" y2="10" stroke="#333" stroke-width="1" opacity="0.6"/>
  <line x1="4" y1="12" x2="6" y2="12" stroke="#333" stroke-width="1" opacity="0.6"/>
  <line x1="4" y1="14" x2="8" y2="14" stroke="#333" stroke-width="1" opacity="0.6"/>
  
  <!-- Reading lines on right page -->
  <line x1="18" y1="8" x2="20" y2="8" stroke="#333" stroke-width="1" opacity="0.6"/>
  <line x1="18" y1="10" x2="21" y2="10" stroke="#333" stroke-width="1" opacity="0.6"/>
  <line x1="18" y1="12" x2="20" y2="12" stroke="#333" stroke-width="1" opacity="0.6"/>
  <line x1="18" y1="14" x2="22" y2="14" stroke="#333" stroke-width="1" opacity="0.6"/>
  
  <!-- Book spine -->
  <line x1="12" y1="3" x2="12" y2="21" stroke="#333" stroke-width="2"/>
</svg>