<svg width="24" height="24" viewBox="0 0 24 24" fill="none" xmlns="http://www.w3.org/2000/svg">
  <rect x="3" y="3" width="6" height="6" fill="currentColor"/>
  <rect x="3" y="11" width="2" height="2" fill="currentColor"/>
  <rect x="5" y="11" width="2" height="2" fill="currentColor"/>
  <rect x="7" y="11" width="2" height="2" fill="currentColor"/>
  <rect x="3" y="13" width="2" height="2" fill="currentColor"/>
  <rect x="7" y="13" width="2" height="2" fill="currentColor"/>
  <rect x="3" y="15" width="6" height="2" fill="currentColor"/>
  
  <rect x="11" y="3" width="2" height="2" fill="currentColor"/>
  <rect x="13" y="3" width="2" height="2" fill="currentColor"/>
  <rect x="15" y="3" width="2" height="2" fill="currentColor"/>
  <rect x="11" y="5" width="2" height="2" fill="currentColor"/>
  <rect x="15" y="5" width="2" height="2" fill="currentColor"/>
  <rect x="11" y="7" width="6" height="2" fill="currentColor"/>
  
  <rect x="11" y="11" width="2" height="2" fill="currentColor"/>
  <rect x="13" y="11" width="2" height="2" fill="currentColor"/>
  <rect x="15" y="11" width="2" height="2" fill="currentColor"/>
  <rect x="11" y="13" width="2" height="2" fill="currentColor"/>
  <rect x="15" y="13" width="2" height="2" fill="currentColor"/>
  <rect x="11" y="15" width="6" height="2" fill="currentColor"/>
  
  <rect x="19" y="3" width="2" height="2" fill="currentColor"/>
  <rect x="21" y="3" width="2" height="2" fill="currentColor"/>
  <rect x="19" y="5" width="2" height="2" fill="currentColor"/>
  <rect x="21" y="5" width="2" height="2" fill="currentColor"/>
  <rect x="19" y="7" width="4" height="2" fill="currentColor"/>
  
  <rect x="19" y="11" width="2" height="2" fill="currentColor"/>
  <rect x="21" y="11" width="2" height="2" fill="currentColor"/>
  <rect x="19" y="13" width="2" height="2" fill="currentColor"/>
  <rect x="21" y="13" width="2" height="2" fill="currentColor"/>
  <rect x="19" y="15" width="4" height="2" fill="currentColor"/>
  
  <rect x="3" y="19" width="2" height="2" fill="currentColor"/>
  <rect x="5" y="19" width="2" height="2" fill="currentColor"/>
  <rect x="7" y="19" width="2" height="2" fill="currentColor"/>
  <rect x="3" y="21" width="2" height="2" fill="currentColor"/>
  <rect x="7" y="21" width="2" height="2" fill="currentColor"/>
  <rect x="3" y="23" width="6" height="1" fill="currentColor"/>
</svg>
